<svg width="22" height="22" viewBox="0 0 22 22" fill="none" xmlns="http://www.w3.org/2000/svg">
<rect x="0.5" y="0.5" width="21" height="21" rx="3" fill="white" stroke="#8757BF"/>
<path fill-rule="evenodd" clip-rule="evenodd" d="M10.9999 15.9649C10.6529 15.9649 10.371 15.6837 10.371 15.3365V6.66239C10.371 6.31524 10.6529 6.03339 10.9999 6.03339C11.347 6.03339 11.6282 6.31524 11.6282 6.66239V15.3365C11.6282 15.6843 11.3478 15.9649 10.9999 15.9649Z" fill="#8757BF"/>
<path fill-rule="evenodd" clip-rule="evenodd" d="M15.3371 11.6277H6.66285C6.3158 11.6277 6.03387 11.3471 6.03387 10.9995C6.03387 10.6524 6.31507 10.3704 6.66285 10.3704H15.3371C15.6841 10.3704 15.9653 10.6524 15.9653 10.9995C15.9653 11.3471 15.6849 11.6277 15.3371 11.6277Z" fill="#8757BF"/>
</svg>
