<svg xmlns="http://www.w3.org/2000/svg" xmlns:xlink="http://www.w3.org/1999/xlink" width="10" height="25" viewBox="0 0 10 25">
    <defs>
        <rect id="b" width="1214" height="868" x="186" y="157" rx="5"/>
        <filter id="a" width="101.7%" height="102.4%" x="-.9%" y="-1.2%" filterUnits="objectBoundingBox">
            <feMorphology in="SourceAlpha" operator="dilate" radius="1" result="shadowSpreadOuter1"/>
            <feOffset in="shadowSpreadOuter1" result="shadowOffsetOuter1"/>
            <feGaussianBlur in="shadowOffsetOuter1" result="shadowBlurOuter1" stdDeviation="2.5"/>
            <feColorMatrix in="shadowBlurOuter1" values="0 0 0 0 0.703629889 0 0 0 0 0.703629889 0 0 0 0 0.703629889 0 0 0 0.5 0"/>
        </filter>
        <rect id="d" width="300" height="155" rx="3"/>
        <filter id="c" width="103%" height="105.8%" x="-1.5%" y="-2.9%" filterUnits="objectBoundingBox">
            <feMorphology in="SourceAlpha" operator="dilate" radius=".5" result="shadowSpreadOuter1"/>
            <feOffset in="shadowSpreadOuter1" result="shadowOffsetOuter1"/>
            <feGaussianBlur in="shadowOffsetOuter1" result="shadowBlurOuter1" stdDeviation="1"/>
            <feColorMatrix in="shadowBlurOuter1" values="0 0 0 0 0.797991071 0 0 0 0 0.797991071 0 0 0 0 0.797991071 0 0 0 0.5 0"/>
        </filter>
    </defs>
    <g fill="none" fill-rule="evenodd">
        <path fill="#F9F9F9" d="M-530-527H887V693H-530z"/>
        <g transform="translate(-670 -527)">
            <use fill="#000" filter="url(#a)" xlink:href="#b"/>
            <use fill="#FFF" xlink:href="#b"/>
        </g>
        <path stroke="#EAEBED" d="M-253 71V-94h730"/>
        <g transform="translate(-24 -75)">
            <use fill="#000" filter="url(#c)" xlink:href="#d"/>
            <use fill="#FFF" xlink:href="#d"/>
        </g>
        <g stroke="#727272">
            <path d="M4.71 5.575a2.496 2.496 0 1 0 0-4.992 2.496 2.496 0 0 0 0 4.992M5.094 6.867H4.29A3.753 3.753 0 0 0 .537 10.62v5.311c0 .37.253.713.617.772a.742.742 0 0 0 .867-.732v-4.81h.366V23.474c0 .37.253.713.618.772a.743.743 0 0 0 .866-.732v-6.468a.82.82 0 1 1 1.642 0v6.428c0 .37.252.713.617.772a.742.742 0 0 0 .866-.732V11.161h.367v4.77c0 .37.253.713.617.772a.743.743 0 0 0 .867-.732V10.62a3.753 3.753 0 0 0-3.753-3.753"/>
        </g>
    </g>
</svg>
