<svg xmlns="http://www.w3.org/2000/svg" width="21" height="24" viewBox="0 0 21 24">
    <path fill="#666" fill-rule="nonzero" stroke="#727272" stroke-width=".5" d="M1.203 1.001c-.12.025-.205.141-.203.275v22.011c0 .152.112.275.25.276h14.5c.138 0 .25-.124.25-.276v-3.233c-.001-.02-.004-.04-.008-.06.089-.08.173-.17.257-.258a.286.286 0 0 0 .07.155l3.25 3.586c.098.108.256.11.355.003a.297.297 0 0 0 .005-.39l-3.258-3.586a.242.242 0 0 0-.14-.077c.91-1.08 1.468-2.53 1.468-4.119 0-1.878-.777-3.558-2-4.668V6.229a.29.29 0 0 0-.07-.198l-4.5-4.952A.238.238 0 0 0 11.25 1H1.25a.227.227 0 0 0-.047 0zm.297.55h9.25v4.953c0 .152.112.275.25.275h4.5v3.465a5.113 5.113 0 0 0-3-.989c-1.584 0-3.012.745-4.016 1.926H4a.227.227 0 0 0-.046 0c-.137.015-.238.15-.225.301.013.152.134.263.272.25h4.062a6.367 6.367 0 0 0-.968 2.476H4a.227.227 0 0 0-.047 0c-.138.014-.24.149-.226.3.013.153.135.264.273.25h3.023a6.612 6.612 0 0 0 .266 2.476h-3.29a.227.227 0 0 0-.046 0 .254.254 0 0 0-.205.16.3.3 0 0 0 .024.275c.052.08.139.125.228.116h3.476a6.007 6.007 0 0 0 1.867 2.476H4a.227.227 0 0 0-.047 0 .254.254 0 0 0-.205.16.3.3 0 0 0 .024.275c.052.08.139.124.228.115H10.195c.701.357 1.482.55 2.305.55a5.11 5.11 0 0 0 3-.98v2.631h-14V1.552zm9.75.112l4.148 4.566H11.25V1.663zm1.25 8.143c2.764 0 5 2.46 5 5.502a5.813 5.813 0 0 1-1.25 3.637v-.24c0-1.175-.66-2.2-1.57-2.606.2-.396.32-.856.32-1.34 0-1.517-1.123-2.752-2.5-2.752-1.378 0-2.5 1.235-2.5 2.751 0 .485.119.945.32 1.341-.911.406-1.57 1.431-1.57 2.606v.24a5.813 5.813 0 0 1-1.25-3.637c0-3.042 2.235-5.502 5-5.502zm0 2.751c1.107 0 2 .982 2 2.201s-.893 2.201-2 2.201c-1.108 0-2-.982-2-2.2 0-1.22.892-2.202 2-2.202zm-1.89 4.007c.458.582 1.136.945 1.89.945.753 0 1.431-.363 1.89-.945.765.28 1.36 1.146 1.36 2.14v.783c-.875.824-2.007 1.324-3.25 1.324-1.244 0-2.376-.5-3.25-1.324v-.782c0-.995.594-1.862 1.36-2.141z"/>
</svg>
